<?xml version="1.0" encoding="utf-8"?>
<!-- Generator: Adobe Illustrator 27.1.1, SVG Export Plug-In . SVG Version: 6.00 Build 0)  -->
<svg version="1.1" id="圖層_1" xmlns="http://www.w3.org/2000/svg" xmlns:xlink="http://www.w3.org/1999/xlink" x="0px" y="0px"
	 viewBox="0 0 407.6 64.5" style="enable-background:new 0 0 407.6 64.5;" xml:space="preserve">
<style type="text/css">
	.st0{fill:#00A0E6;}
	.st1{fill:#FFFFFF;}
</style>
<g>
	<g>
		<g>
			<g>
				<path class="st0" d="M242.1,35.3c-1.3,2.1-2.2,4.5-2.8,7.2h10.9c0.1-0.6,0.3-1.1,0.5-1.7c1.3-3,4-5.3,7.3-5.8
					c0.8-0.2,1.7-0.4,2.5-0.4c2.8,0,5.1,1.3,6.6,3.3c0.7,0.8,1.2,1.8,1.5,2.9c0.1,0.5,0.2,1.1,0.3,1.7h13.6l1.6-8.5H243L242.1,35.3z
					"/>
				<path class="st0" d="M274.1,25.5l-1,5.5H273c-1-2.4-7-5.5-13.4-5.5c-5.5,0-10.7,2.2-14.6,6.2h39.8l1.1-6.1L274.1,25.5
					L274.1,25.5z"/>
				<path class="st0" d="M264.4,51.4c-1.2,0.7-2.5,1.2-3.7,1.3c-0.6,0.1-1.3,0.2-1.9,0.2c-1.7,0-3.3-0.5-4.6-1.3
					c-0.1-0.1-0.3-0.1-0.4-0.2c-2.3-1.3-3.7-3.5-3.8-6.5h-11v0.2c0,0.4-0.1,0.8-0.1,1.3c-0.1,2.2,0.1,4.3,0.7,6.2l0.3,0.9h40.9
					l1.6-8.5H269C268.5,47.9,266.6,50.1,264.4,51.4"/>
				<path class="st0" d="M256,64.4c4.6-0.1,8.9-0.8,11.6-4.6h0.1L267,64h11.8l1.5-8.2h-39.5C243.8,61.5,249.9,64.6,256,64.4"/>
				<path class="st0" d="M144.9,34.6c4.7,0,8.5,3.5,9.1,8h11.1c-0.2-3.1-1.2-6-2.7-8.5h-35c-1.5,2.5-2.4,5.5-2.7,8.5h11.1
					C136.4,38,140.2,34.6,144.9,34.6"/>
				<path class="st0" d="M144.9,23.9c-6.5,0-12.2,3-15.9,7.7h31.8C157.1,26.9,151.3,23.9,144.9,23.9"/>
				<path class="st0" d="M144.9,52.9c-4.6,0-8.5-3.5-9.1-8h-11.2c0.1,3.1,0.9,6,2.2,8.5h36.1c1.3-2.6,2.1-5.5,2.2-8.5h-11.2
					C153.4,49.4,149.5,52.9,144.9,52.9"/>
				<path class="st0" d="M144.9,64.5c6.9,0,13-3.4,16.6-8.7h-33.2C131.9,61,138,64.5,144.9,64.5"/>
				<path class="st0" d="M8.6,55.8c3.4,3.6,7.8,6.3,13.7,7.6c6.7,1.4,12.4,1.1,18-0.7l1.3-7L8.6,55.8L8.6,55.8z"/>
				<path class="st0" d="M48.9,7.1C44.7,3.9,40.4,1.6,34,0.5c-11.3-2-20.2,1.8-26.2,9.3h40.6L48.9,7.1z"/>
				<path class="st0" d="M15.6,35.7c-0.1-0.7-0.2-1.3-0.2-1.8H0.1v0.9c0.2,2.5,0.6,5.1,1.3,7.6h17.1C17.1,40.2,16,37.7,15.6,35.7"/>
				<path class="st0" d="M6,12.4c-1.6,2.5-3.1,5.5-4,8.3h17.4c3.2-4,9.6-7.2,15-6.1c3.7,0.8,7.4,2.4,10.6,4.8
					c0.3,0.2,1.2,0.9,1.5,1.2l1.5-8.4H6.1L6,12.4z"/>
				<path class="st0" d="M28.7,50.8c-3.1-0.7-6-2.9-8.1-5.4c-0.1-0.2-0.3-0.3-0.4-0.5h-18l0.2,0.5c1,2.8,2.4,5.5,4.2,7.9l0.1,0.1H42
					l0.7-4C36.6,51.4,33.6,51.9,28.7,50.8"/>
				<path class="st0" d="M17.8,23.1H1.2L1,23.9c-0.1,0.6-0.3,1.1-0.4,1.7c-0.4,1.8-0.6,3.8-0.6,6h15.4C15.5,29,15.8,26.6,17.8,23.1"
					/>
				<path class="st0" d="M88.1,29.6c-2-3-6.3-4.4-10.1-4.4c-4.3,0-8.6,1.4-11.3,5.1h-0.1l1.1-6.1l0.2-1H55.8l-1.6,8.6h34.9
					C88.9,31,88.5,30.3,88.1,29.6"/>
			</g>
			<polygon class="st0" points="69.9,12.2 57.8,12.2 56.2,20.7 68.3,20.7 			"/>
			<polygon class="st0" points="73.5,63.9 85.6,63.9 87,55.8 74.9,55.8 			"/>
			<g>
				<path class="st0" d="M89.8,34h-36l-1.6,8.5h12.1v-0.3c0.8-2.5,2.7-5.8,7.7-5.8c4.6,0,5.3,3.2,5.2,5.8v0.3h12.1l0.1-0.3
					c0.5-3.1,0.8-5.5,0.5-7.6L89.8,34z"/>
			</g>
			<polygon class="st0" points="75.4,53.4 87.4,53.4 89,44.9 76.8,44.9 			"/>
			<polygon class="st0" points="50.3,53.4 62.3,53.4 63.9,44.9 51.8,44.9 			"/>
			<polygon class="st0" points="71.9,1.2 59.8,1.2 58.2,9.8 70.3,9.8 			"/>
			<polygon class="st0" points="48.4,63.9 60.4,63.9 61.9,55.8 49.8,55.8 			"/>
			<g>
				<path class="st0" d="M112,29.7l0.6-4.3h-11.3l-1.2,6.2h21.5l1.1-6.2C115.9,25.5,113.4,27.7,112,29.7"/>
			</g>
			<polygon class="st0" points="94.2,63.9 106.2,63.9 107.8,55.8 95.7,55.8 			"/>
			<g>
				<path class="st0" d="M98.2,42.5h12.1l0.1-0.3c1-5.2,4.7-7,10.3-4.7l0.7-3.6H99.8L98.2,42.5z"/>
			</g>
			<polygon class="st0" points="96.2,53.4 108.2,53.4 109.8,44.9 97.8,44.9 			"/>
			<polygon class="st0" points="192,64 204.2,64 205.7,55.8 193.6,55.8 			"/>
			<g>
				<path class="st0" d="M232.7,34h-59.6l-1.5,8.5h12.3c1.1-2.3,3.1-4.4,7-4.4c3.6,0,5,2.2,5.2,4.4h12.2c1-2.2,3-4.4,7-4.4
					c3.7,0,4.8,2.1,4.9,4.4h12.2c0.5-3.2,0.8-5.4,0.6-7.2L232.7,34z"/>
			</g>
			<polygon class="st0" points="169.6,53.4 181.9,53.4 183.4,44.9 171.2,44.9 			"/>
			<polygon class="st0" points="194.1,53.4 206.2,53.4 207.8,44.9 195.8,44.9 			"/>
			<polygon class="st0" points="216.2,64 228.7,64 230.2,55.8 217.8,55.8 			"/>
			<polygon class="st0" points="167.7,64 180,64 181.5,55.8 169.2,55.8 			"/>
			<polygon class="st0" points="218.2,53.4 230.6,53.4 232,44.9 219.9,44.9 			"/>
			<g>
				<path class="st0" d="M230.6,29.6c-2.6-3.3-6.9-3.8-9.7-4c-2.5-0.1-7.3-0.8-13.9,5.2c-3.9-5-7.6-5.4-11.1-5.4
					c-7.5,0-9.8,4.1-11,5.8h-0.1l1.1-5.7h-11.1l-1.1,6.2H232C231.5,31,231.1,30.3,230.6,29.6"/>
			</g>
		</g>
		<g>
			<path class="st1" d="M320.2,39.7h-1.7c-0.2,0-0.3,0-0.5-0.1c-0.1-0.1-0.2-0.2-0.3-0.4l-1.5-3.9H309l-1.5,3.9
				c-0.1,0.1-0.1,0.3-0.3,0.4c-0.1,0.1-0.3,0.2-0.5,0.2H305l6.4-16h2.2L320.2,39.7z M309.7,33.7h6l-2.5-6.5
				c-0.2-0.4-0.3-0.9-0.5-1.5c-0.1,0.3-0.2,0.6-0.2,0.8c-0.1,0.3-0.2,0.5-0.2,0.7L309.7,33.7z"/>
			<path class="st1" d="M329.9,39.7c-0.3,0-0.5-0.1-0.5-0.4l-0.2-1.4c-0.5,0.6-1,1.1-1.7,1.4c-0.6,0.4-1.3,0.5-2.1,0.5
				c-0.6,0-1.2-0.1-1.8-0.4c-0.5-0.2-1-0.6-1.4-1.1s-0.7-1.1-0.9-1.8c-0.2-0.7-0.3-1.6-0.3-2.5c0-0.8,0.1-1.6,0.3-2.3
				c0.2-0.7,0.5-1.3,1-1.9c0.4-0.5,0.9-0.9,1.5-1.2c0.6-0.3,1.3-0.5,2.1-0.5c0.7,0,1.3,0.1,1.8,0.4c0.5,0.2,0.9,0.6,1.3,1v-6.3h2
				v16.4L329.9,39.7L329.9,39.7L329.9,39.7z M326,38.2c0.6,0,1.2-0.1,1.7-0.4c0.5-0.3,0.9-0.7,1.3-1.3V31c-0.4-0.5-0.8-0.8-1.2-1
				c-0.4-0.2-0.9-0.3-1.4-0.3c-1.1,0-1.9,0.4-2.4,1.1c-0.6,0.8-0.8,1.8-0.8,3.2c0,0.7,0.1,1.4,0.2,1.9s0.3,1,0.6,1.3
				c0.2,0.3,0.5,0.6,0.9,0.7C325.2,38.1,325.6,38.2,326,38.2z"/>
			<path class="st1" d="M333,28.3h1.6c0.2,0,0.3,0,0.4,0.1s0.2,0.2,0.2,0.3l2.9,7.3c0.1,0.3,0.2,0.5,0.2,0.8
				c0.1,0.3,0.1,0.5,0.2,0.8c0.1-0.3,0.1-0.5,0.2-0.8s0.2-0.5,0.3-0.8l2.9-7.3c0-0.1,0.1-0.2,0.2-0.3c0.1-0.1,0.2-0.1,0.4-0.1h1.6
				l-4.6,11.3h-1.8L333,28.3z"/>
			<path class="st1" d="M354.2,39.7h-0.9c-0.2,0-0.4,0-0.5-0.1s-0.2-0.2-0.2-0.4l-0.2-1.1c-0.3,0.3-0.6,0.5-0.9,0.7
				s-0.6,0.4-0.9,0.5s-0.6,0.3-1,0.3c-0.4,0.1-0.7,0.1-1.2,0.1c-0.4,0-0.9-0.1-1.2-0.2c-0.4-0.1-0.7-0.3-1-0.6
				c-0.3-0.2-0.5-0.6-0.7-0.9c-0.2-0.4-0.3-0.8-0.3-1.3c0-0.4,0.1-0.9,0.4-1.3c0.2-0.4,0.6-0.8,1.2-1.1c0.5-0.3,1.3-0.6,2.1-0.8
				c0.9-0.2,2-0.3,3.2-0.3v-0.9c0-0.9-0.2-1.6-0.6-2s-0.9-0.7-1.7-0.7c-0.5,0-0.9,0.1-1.2,0.2c-0.3,0.1-0.6,0.3-0.9,0.4
				c-0.2,0.2-0.4,0.3-0.6,0.4s-0.3,0.2-0.5,0.2c-0.1,0-0.3,0-0.4-0.1s-0.2-0.2-0.2-0.3l-0.4-0.6c0.6-0.6,1.3-1.1,2-1.4
				s1.5-0.4,2.4-0.4c0.6,0,1.2,0.1,1.7,0.3c0.5,0.2,0.9,0.5,1.2,0.9c0.3,0.4,0.6,0.8,0.8,1.4c0.2,0.5,0.3,1.1,0.3,1.7L354.2,39.7
				L354.2,39.7L354.2,39.7z M349,38.4c0.4,0,0.7,0,1-0.1s0.6-0.2,0.8-0.3c0.3-0.1,0.5-0.3,0.7-0.5s0.5-0.4,0.7-0.6v-2.3
				c-0.9,0-1.7,0.1-2.3,0.2c-0.6,0.1-1.2,0.3-1.6,0.5s-0.7,0.4-0.9,0.7c-0.2,0.3-0.3,0.5-0.3,0.9c0,0.3,0,0.6,0.1,0.8
				s0.2,0.4,0.4,0.5s0.4,0.2,0.6,0.3C348.5,38.4,348.7,38.4,349,38.4z"/>
			<path class="st1" d="M357.2,39.7V28.3h1.2c0.3,0,0.5,0.1,0.5,0.4L359,30c0.5-0.5,1-1,1.6-1.3s1.3-0.5,2.1-0.5
				c0.6,0,1.2,0.1,1.6,0.3s0.9,0.5,1.2,0.9c0.3,0.4,0.6,0.8,0.7,1.4c0.2,0.5,0.2,1.1,0.2,1.8v7.2h-2v-7.2c0-0.9-0.2-1.5-0.6-2
				s-1-0.7-1.8-0.7c-0.6,0-1.1,0.1-1.6,0.4s-1,0.7-1.4,1.1v8.3L357.2,39.7L357.2,39.7L357.2,39.7z"/>
			<path class="st1" d="M377.3,30.4c-0.1,0.1-0.1,0.1-0.2,0.2c-0.1,0-0.1,0.1-0.3,0.1s-0.2,0-0.4-0.1c-0.1-0.1-0.3-0.2-0.5-0.3
				c-0.2-0.1-0.4-0.2-0.7-0.3c-0.3-0.1-0.6-0.1-1.1-0.1c-0.6,0-1,0.1-1.5,0.3c-0.4,0.2-0.8,0.5-1.1,0.9c-0.3,0.4-0.5,0.8-0.6,1.4
				c-0.1,0.6-0.2,1.1-0.2,1.8s0.1,1.3,0.2,1.8c0.2,0.5,0.4,1,0.7,1.3c0.3,0.4,0.6,0.6,1,0.8s0.9,0.3,1.4,0.3s0.9-0.1,1.2-0.2
				c0.3-0.1,0.6-0.2,0.8-0.4c0.2-0.1,0.4-0.3,0.5-0.4c0.1-0.1,0.3-0.2,0.4-0.2c0.2,0,0.3,0.1,0.4,0.2l0.6,0.7
				c-0.5,0.6-1.1,1-1.8,1.3c-0.7,0.3-1.5,0.4-2.3,0.4c-0.7,0-1.4-0.1-2-0.4c-0.6-0.3-1.1-0.6-1.6-1.1c-0.4-0.5-0.8-1.1-1.1-1.8
				c-0.3-0.7-0.4-1.5-0.4-2.5c0-0.8,0.1-1.6,0.4-2.3c0.2-0.7,0.6-1.3,1-1.8s1-0.9,1.7-1.2c0.7-0.3,1.4-0.4,2.3-0.4
				c0.8,0,1.5,0.1,2.1,0.4s1.1,0.6,1.6,1.1L377.3,30.4z"/>
			<path class="st1" d="M382.7,24.8c0,0.2,0,0.4-0.1,0.5c-0.1,0.2-0.2,0.3-0.3,0.4s-0.3,0.2-0.5,0.3c-0.2,0.1-0.4,0.1-0.5,0.1
				c-0.2,0-0.4,0-0.5-0.1c-0.2-0.1-0.3-0.2-0.4-0.3c-0.1-0.1-0.2-0.3-0.3-0.4c-0.1-0.2-0.1-0.3-0.1-0.5s0-0.4,0.1-0.6
				s0.2-0.3,0.3-0.5c0.1-0.1,0.3-0.2,0.4-0.3c0.2-0.1,0.3-0.1,0.5-0.1s0.4,0,0.5,0.1c0.2,0.1,0.3,0.2,0.5,0.3
				c0.1,0.1,0.2,0.3,0.3,0.5C382.6,24.4,382.7,24.6,382.7,24.8z M382.2,28.3v11.3h-2V28.3H382.2z"/>
			<path class="st1" d="M385.7,39.7V28.3h1.2c0.3,0,0.5,0.1,0.5,0.4l0.2,1.2c0.5-0.5,1-1,1.6-1.3s1.3-0.5,2.1-0.5
				c0.6,0,1.2,0.1,1.6,0.3c0.5,0.2,0.9,0.5,1.2,0.9c0.3,0.4,0.6,0.8,0.7,1.4c0.2,0.5,0.2,1.1,0.2,1.8v7.2h-2v-7.2
				c0-0.9-0.2-1.5-0.6-2s-1-0.7-1.8-0.7c-0.6,0-1.1,0.1-1.6,0.4s-1,0.7-1.4,1.1v8.3L385.7,39.7L385.7,39.7L385.7,39.7z"/>
			<path class="st1" d="M402,28.2c0.5,0,1,0.1,1.4,0.2s0.8,0.3,1.2,0.5h3.1v0.7c0,0.2-0.2,0.4-0.5,0.5l-1.3,0.2
				c0.3,0.5,0.4,1,0.4,1.6s-0.1,1.1-0.3,1.5c-0.2,0.4-0.5,0.8-0.9,1.2c-0.4,0.3-0.8,0.6-1.3,0.7s-1.1,0.3-1.7,0.3
				c-0.5,0-1-0.1-1.5-0.2c-0.2,0.2-0.4,0.3-0.5,0.5s-0.2,0.4-0.2,0.5c0,0.3,0.1,0.5,0.3,0.6c0.2,0.1,0.5,0.2,0.9,0.3
				s0.8,0.1,1.2,0.1c0.5,0,0.9,0,1.4,0s0.9,0,1.4,0.1s0.9,0.2,1.2,0.4c0.4,0.2,0.6,0.4,0.9,0.8c0.2,0.3,0.3,0.8,0.3,1.3
				s-0.1,1-0.4,1.4c-0.2,0.5-0.6,0.9-1,1.2c-0.5,0.4-1,0.6-1.7,0.9c-0.7,0.2-1.4,0.3-2.2,0.3s-1.6-0.1-2.2-0.2
				c-0.6-0.2-1.1-0.4-1.5-0.7s-0.7-0.6-0.9-1c-0.2-0.4-0.3-0.7-0.3-1.1c0-0.6,0.2-1,0.5-1.4c0.4-0.4,0.8-0.7,1.5-0.9
				c-0.3-0.1-0.6-0.3-0.8-0.6c-0.2-0.2-0.3-0.6-0.3-1c0-0.2,0-0.3,0.1-0.5s0.1-0.3,0.3-0.5c0.1-0.2,0.3-0.3,0.5-0.5s0.4-0.3,0.6-0.4
				c-0.6-0.3-1-0.7-1.3-1.2s-0.5-1.1-0.5-1.8c0-0.6,0.1-1.1,0.3-1.5c0.2-0.4,0.5-0.8,0.9-1.1c0.4-0.3,0.8-0.6,1.4-0.7
				C400.8,28.2,401.3,28.2,402,28.2z M405.5,40.2c0-0.3-0.1-0.5-0.2-0.7c-0.2-0.2-0.4-0.3-0.6-0.4c-0.3-0.1-0.6-0.2-0.9-0.2
				c-0.4,0-0.7-0.1-1.1-0.1s-0.8,0-1.2,0c-0.4,0-0.8-0.1-1.1-0.2c-0.4,0.2-0.8,0.4-1,0.7c-0.3,0.3-0.4,0.6-0.4,1
				c0,0.3,0.1,0.5,0.2,0.7s0.3,0.4,0.6,0.6c0.3,0.2,0.6,0.3,1,0.4c0.4,0.1,0.9,0.1,1.4,0.1s1,0,1.4-0.1s0.8-0.2,1.1-0.4
				c0.3-0.2,0.5-0.4,0.7-0.6C405.4,40.8,405.5,40.5,405.5,40.2z M402,34.1c0.4,0,0.8-0.1,1.1-0.2c0.3-0.1,0.6-0.3,0.8-0.5
				c0.2-0.2,0.4-0.4,0.5-0.7s0.2-0.6,0.2-0.9c0-0.7-0.2-1.2-0.6-1.7s-1-0.6-1.8-0.6s-1.4,0.2-1.8,0.6s-0.6,1-0.6,1.7
				c0,0.3,0.1,0.6,0.2,0.9s0.3,0.5,0.5,0.7s0.5,0.4,0.8,0.5C401.2,34.1,401.6,34.1,402,34.1z"/>
			<path class="st1" d="M316.9,48.2V50h-7.7v5.3h6.2V57h-6.2v5.5h7.7v1.8H307v-16L316.9,48.2L316.9,48.2z"/>
			<path class="st1" d="M322.4,58.4l-3.8-5.5h1.9c0.2,0,0.3,0,0.4,0.1s0.1,0.1,0.2,0.2l2.8,4.2c0.1-0.2,0.2-0.4,0.3-0.6l2.4-3.6
				c0.1-0.1,0.1-0.2,0.2-0.3s0.2-0.1,0.3-0.1h1.8l-3.8,5.4l4,5.9h-1.9c-0.2,0-0.3,0-0.4-0.1s-0.2-0.2-0.2-0.3l-2.8-4.4
				c-0.1,0.2-0.1,0.4-0.2,0.6l-2.6,3.9c-0.1,0.1-0.2,0.2-0.2,0.3c-0.1,0.1-0.2,0.1-0.4,0.1h-1.8L322.4,58.4z"/>
			<path class="st1" d="M338,54.9c-0.1,0.1-0.1,0.1-0.2,0.2c-0.1,0-0.1,0.1-0.3,0.1s-0.2,0-0.4-0.1c-0.1-0.1-0.3-0.2-0.5-0.3
				s-0.4-0.2-0.7-0.3c-0.3-0.1-0.6-0.1-1.1-0.1c-0.6,0-1,0.1-1.5,0.3c-0.4,0.2-0.8,0.5-1.1,0.9c-0.3,0.4-0.5,0.8-0.6,1.4
				c-0.1,0.5-0.2,1.1-0.2,1.8s0.1,1.3,0.2,1.8c0.2,0.5,0.4,1,0.7,1.3c0.3,0.4,0.6,0.6,1,0.8s0.9,0.3,1.4,0.3s0.9-0.1,1.2-0.2
				c0.3-0.1,0.6-0.2,0.8-0.4c0.2-0.1,0.4-0.3,0.5-0.4c0.1-0.1,0.3-0.2,0.4-0.2c0.2,0,0.3,0.1,0.4,0.2l0.6,0.7
				c-0.5,0.6-1.1,1-1.8,1.3c-0.7,0.3-1.5,0.4-2.3,0.4c-0.7,0-1.4-0.1-2-0.4c-0.6-0.3-1.1-0.6-1.6-1.1c-0.4-0.5-0.8-1.1-1.1-1.8
				c-0.3-0.7-0.4-1.5-0.4-2.5c0-0.8,0.1-1.6,0.4-2.3c0.2-0.7,0.6-1.3,1-1.8s1-0.9,1.7-1.2s1.4-0.4,2.3-0.4c0.8,0,1.5,0.1,2.1,0.4
				c0.6,0.3,1.2,0.6,1.6,1.1L338,54.9z"/>
			<path class="st1" d="M345.2,52.7c0.7,0,1.3,0.1,1.9,0.3s1.1,0.6,1.5,1s0.7,1,1,1.6c0.2,0.6,0.4,1.3,0.4,2.1c0,0.3,0,0.5-0.1,0.6
				s-0.2,0.2-0.4,0.2H342c0,0.7,0.1,1.3,0.3,1.9c0.2,0.5,0.4,1,0.7,1.3c0.3,0.4,0.7,0.6,1.1,0.8s0.9,0.3,1.5,0.3
				c0.5,0,0.9-0.1,1.3-0.2c0.4-0.1,0.7-0.2,0.9-0.4c0.3-0.1,0.5-0.3,0.7-0.4c0.2-0.1,0.3-0.2,0.5-0.2s0.3,0.1,0.4,0.2l0.6,0.7
				c-0.2,0.3-0.5,0.6-0.9,0.8c-0.3,0.2-0.7,0.4-1.1,0.5s-0.8,0.2-1.2,0.3c-0.4,0.1-0.8,0.1-1.2,0.1c-0.8,0-1.5-0.1-2.2-0.4
				c-0.7-0.3-1.2-0.7-1.7-1.2s-0.9-1.1-1.1-1.9c-0.3-0.8-0.4-1.6-0.4-2.6c0-0.8,0.1-1.5,0.4-2.2c0.2-0.7,0.6-1.3,1-1.8
				c0.5-0.5,1-0.9,1.7-1.2C343.7,52.8,344.4,52.7,345.2,52.7z M345.3,54.1c-1,0-1.7,0.3-2.3,0.8c-0.6,0.6-0.9,1.3-1,2.3h6.2
				c0-0.5-0.1-0.9-0.2-1.3c-0.1-0.4-0.3-0.7-0.6-1c-0.2-0.3-0.5-0.5-0.9-0.6S345.7,54.1,345.3,54.1z"/>
			<path class="st1" d="M354.7,47.7v16.4h-2V47.7H354.7z"/>
			<path class="st1" d="M360.4,47.7v16.4h-2V47.7H360.4z"/>
			<path class="st1" d="M368.3,52.7c0.7,0,1.3,0.1,1.9,0.3s1.1,0.6,1.5,1s0.7,1,1,1.6c0.2,0.6,0.3,1.3,0.3,2.1c0,0.3,0,0.5-0.1,0.6
				s-0.2,0.2-0.4,0.2H365c0,0.7,0.1,1.3,0.3,1.9c0.2,0.5,0.4,1,0.7,1.3c0.3,0.4,0.7,0.6,1.1,0.8s0.9,0.3,1.5,0.3
				c0.5,0,0.9-0.1,1.3-0.2c0.4-0.1,0.7-0.2,0.9-0.4c0.3-0.1,0.5-0.3,0.7-0.4c0.2-0.1,0.3-0.2,0.5-0.2s0.3,0.1,0.4,0.2l0.6,0.7
				c-0.2,0.3-0.5,0.6-0.9,0.8c-0.3,0.2-0.7,0.4-1.1,0.5s-0.8,0.2-1.2,0.3c-0.4,0.1-0.8,0.1-1.2,0.1c-0.8,0-1.5-0.1-2.2-0.4
				c-0.7-0.3-1.2-0.7-1.7-1.2s-0.9-1.1-1.1-1.9c-0.3-0.8-0.4-1.6-0.4-2.6c0-0.8,0.1-1.5,0.4-2.2c0.2-0.7,0.6-1.3,1-1.8
				c0.5-0.5,1-0.9,1.7-1.2C366.8,52.8,367.5,52.7,368.3,52.7z M368.4,54.1c-1,0-1.7,0.3-2.3,0.8c-0.6,0.6-0.9,1.3-1,2.3h6.1
				c0-0.5-0.1-0.9-0.2-1.3c-0.1-0.4-0.3-0.7-0.6-1c-0.2-0.3-0.5-0.5-0.9-0.6C369.3,54.2,368.8,54.1,368.4,54.1z"/>
			<path class="st1" d="M375.6,64.2V52.8h1.2c0.3,0,0.5,0.1,0.5,0.4l0.2,1.2c0.5-0.5,1-1,1.6-1.3s1.3-0.5,2.1-0.5
				c0.6,0,1.2,0.1,1.6,0.3c0.5,0.2,0.9,0.5,1.2,0.9c0.3,0.4,0.6,0.8,0.7,1.4c0.2,0.5,0.2,1.1,0.2,1.8v7.2h-2V57c0-0.9-0.2-1.5-0.6-2
				s-1-0.7-1.8-0.7c-0.6,0-1.1,0.1-1.6,0.4c-0.5,0.3-1,0.7-1.4,1.1v8.3L375.6,64.2L375.6,64.2L375.6,64.2z"/>
			<path class="st1" d="M395.7,54.9c-0.1,0.1-0.1,0.1-0.2,0.2c-0.1,0-0.1,0.1-0.3,0.1c-0.1,0-0.2,0-0.4-0.1
				c-0.1-0.1-0.3-0.2-0.5-0.3s-0.4-0.2-0.7-0.3c-0.3-0.1-0.6-0.1-1.1-0.1c-0.6,0-1,0.1-1.5,0.3c-0.4,0.2-0.8,0.5-1.1,0.9
				c-0.3,0.4-0.5,0.8-0.6,1.4c-0.1,0.5-0.2,1.1-0.2,1.8s0.1,1.3,0.2,1.8c0.2,0.5,0.4,1,0.7,1.3c0.3,0.4,0.6,0.6,1,0.8
				s0.9,0.3,1.4,0.3s0.9-0.1,1.2-0.2c0.3-0.1,0.6-0.2,0.8-0.4c0.2-0.1,0.4-0.3,0.5-0.4c0.1-0.1,0.3-0.2,0.4-0.2
				c0.2,0,0.3,0.1,0.4,0.2l0.6,0.7c-0.5,0.6-1.1,1-1.8,1.3c-0.7,0.3-1.5,0.4-2.3,0.4c-0.7,0-1.4-0.1-2-0.4c-0.6-0.3-1.1-0.6-1.6-1.1
				c-0.4-0.5-0.8-1.1-1.1-1.8c-0.3-0.7-0.4-1.5-0.4-2.5c0-0.8,0.1-1.6,0.4-2.3c0.2-0.7,0.6-1.3,1-1.8s1-0.9,1.7-1.2s1.4-0.4,2.3-0.4
				c0.8,0,1.5,0.1,2.1,0.4c0.6,0.3,1.2,0.6,1.6,1.1L395.7,54.9z"/>
			<path class="st1" d="M402.9,52.7c0.7,0,1.3,0.1,1.9,0.3s1.1,0.6,1.5,1s0.7,1,1,1.6c0.2,0.6,0.3,1.3,0.3,2.1c0,0.3,0,0.5-0.1,0.6
				s-0.2,0.2-0.4,0.2h-7.5c0,0.7,0.1,1.3,0.3,1.9c0.2,0.5,0.4,1,0.7,1.3c0.3,0.4,0.7,0.6,1.1,0.8s0.9,0.3,1.5,0.3
				c0.5,0,0.9-0.1,1.3-0.2c0.4-0.1,0.7-0.2,0.9-0.4c0.3-0.1,0.5-0.3,0.7-0.4c0.2-0.1,0.3-0.2,0.5-0.2s0.3,0.1,0.4,0.2l0.6,0.7
				c-0.2,0.3-0.5,0.6-0.9,0.8c-0.3,0.2-0.7,0.4-1.1,0.5s-0.8,0.2-1.2,0.3c-0.4,0.1-0.8,0.1-1.2,0.1c-0.8,0-1.5-0.1-2.2-0.4
				c-0.7-0.3-1.2-0.7-1.7-1.2s-0.9-1.1-1.1-1.9c-0.3-0.8-0.4-1.6-0.4-2.6c0-0.8,0.1-1.5,0.4-2.2c0.2-0.7,0.6-1.3,1-1.8
				c0.5-0.5,1-0.9,1.7-1.2C401.3,52.8,402.1,52.7,402.9,52.7z M402.9,54.1c-1,0-1.7,0.3-2.3,0.8c-0.6,0.6-0.9,1.3-1,2.3h6.2
				c0-0.5-0.1-0.9-0.2-1.3c-0.1-0.4-0.3-0.7-0.6-1c-0.2-0.3-0.5-0.5-0.9-0.6C403.8,54.2,403.4,54.1,402.9,54.1z"/>
		</g>
	</g>
	<path class="st0" d="M242.1,35.3c-1.3,2.1-2.2,4.5-2.8,7.2h10.9c0.1-0.6,0.3-1.1,0.5-1.7c1.3-3,4-5.3,7.3-5.8
		c0.8-0.2,1.7-0.4,2.5-0.4c2.8,0,5.1,1.3,6.6,3.3c0.7,0.8,1.2,1.8,1.5,2.9c0.1,0.5,0.2,1.1,0.3,1.7h13.6l1.6-8.5H243L242.1,35.3z"/>
	<path class="st0" d="M274.1,25.5l-1,5.5H273c-1-2.4-7-5.5-13.4-5.5c-5.5,0-10.7,2.2-14.6,6.2h39.8l1.1-6.1L274.1,25.5L274.1,25.5z"
		/>
	<path class="st0" d="M264.4,51.4c-1.2,0.7-2.5,1.2-3.7,1.3c-0.6,0.1-1.3,0.2-1.9,0.2c-1.7,0-3.3-0.5-4.6-1.3
		c-0.1-0.1-0.3-0.1-0.4-0.2c-2.3-1.3-3.7-3.5-3.8-6.5h-11v0.2c0,0.4-0.1,0.8-0.1,1.3c-0.1,2.2,0.1,4.3,0.7,6.2l0.3,0.9h40.9l1.6-8.5
		H269C268.5,47.9,266.6,50.1,264.4,51.4"/>
	<path class="st0" d="M256,64.4c4.6-0.1,8.9-0.8,11.6-4.6h0.1L267,64h11.8l1.5-8.2h-39.5C243.8,61.5,249.9,64.6,256,64.4"/>
</g>
</svg>
