<?xml version="1.0" encoding="UTF-8"?>
<svg id="Ebene_1" xmlns="http://www.w3.org/2000/svg" version="1.1" viewBox="0 0 237.9 109.5">
  <!-- Generator: Adobe Illustrator 29.8.1, SVG Export Plug-In . SVG Version: 2.1.1 Build 2)  -->
  <defs>
    <style>
      .st0 {
        fill: #76787b;
      }

      .st1 {
        fill: #363a37;
      }

      .st2 {
        fill: #272b68;
      }

      .st3 {
        fill: #97262b;
      }
    </style>
  </defs>
  <path class="st2" d="M30.11,65.26h-3.88c2.76-2.65,4.48-6.37,4.48-10.5,0-8.06-6.53-14.59-14.59-14.59-3.82,0-14.66-.02-14.66-.02,0,0,.06,10.37.06,14.61v14.32h11.79v-3.81c-4.65-1.24-8.08-5.46-8.08-10.5,0-6.01,4.87-10.88,10.88-10.88s10.88,4.87,10.88,10.88c0,5.04-3.43,9.26-8.08,10.5v3.81h11.83v-3.16c0-.36-.29-.65-.65-.65Z"/>
  <circle class="st3" cx="16.17" cy="54.76" r="4.59"/>
  <g>
    <path class="st0" d="M55.44,49.52v14.31c0,3.76-2.48,5.24-6.24,5.24h-6.34v-24.8h6.34c3.76,0,6.24,1.49,6.24,5.24ZM49.07,47.89h-2.09v17.57h2.09c1.35,0,2.27-.5,2.27-2.27v-13.04c0-1.77-.92-2.27-2.27-2.27Z"/>
    <path class="st0" d="M77.32,69.07h-3.86l-3.19-17-3.19,17h-4l-3.9-24.8h4.04l2.05,17.71,3.19-17.71h3.68l3.19,17.71,2.05-17.71h3.83l-3.9,24.8Z"/>
    <path class="st0" d="M93.57,69.07h-4.11v-8.82l-5-15.98h4.32l2.76,11.51,2.76-11.51h4.25l-4.99,15.98v8.82Z"/>
    <path class="st0" d="M102.95,69.07v-24.8h10.88v3.61h-6.77v6.8h5.67v3.61h-5.67v7.16h6.87v3.61h-10.98Z"/>
    <path class="st0" d="M129.01,69.07l-3.15-9.88h-2.05v9.88h-4.11v-24.8h6.41c3.76,0,6.24,1.49,6.24,5.24v4.43c0,2.37-.99,3.86-2.69,4.61l3.54,10.52h-4.18ZM123.81,55.65h2.16c1.35,0,2.27-.5,2.27-2.27v-3.22c0-1.77-.92-2.27-2.27-2.27h-2.16v7.76Z"/>
  </g>
  <path class="st1" d="M144.82,43.99h.28c3.76,0,6.24,1.49,6.24,5.24v14.88c0,3.76-2.48,5.24-6.24,5.24h-.28c-3.76,0-6.24-1.49-6.24-5.24v-14.88c0-3.79,2.48-5.24,6.24-5.24ZM144.96,65.74c1.35,0,2.27-.5,2.27-2.27v-13.6c0-1.77-.92-2.27-2.27-2.27s-2.27.5-2.27,2.27v13.6c0,1.77.92,2.27,2.27,2.27Z"/>
  <path class="st1" d="M167.34,65.46h-2.3l-3.72-11.55v15.16h-3.83v-24.8h3.9l4.78,14.42,4.82-14.42h4.04v24.8h-3.97v-15.16l-3.72,11.55Z"/>
  <path class="st1" d="M181.46,69.07v-24.8h10.88v3.61h-6.77v6.8h5.67v3.61h-5.67v7.16h6.87v3.61h-10.98Z"/>
  <path class="st1" d="M210.64,64.11c0,3.83-2.48,5.24-6.24,5.24h-.28c-3.76,0-6.24-1.38-6.24-5.24v-14.88c0-3.68,2.48-5.24,6.24-5.24h.28c3.76,0,6.24,1.56,6.24,5.24v3.54h-4.11v-2.9c0-1.77-.92-2.27-2.27-2.27s-2.27.5-2.27,2.27v13.6c0,1.77.92,2.27,2.27,2.27s2.27-.5,2.27-2.27v-3.68h-2.41v-3.47h6.52v7.79Z"/>
  <path class="st1" d="M224.03,63.55h-4.53l-.89,5.53h-3.97l4.6-24.8h5.17l4.68,24.8h-4.18l-.89-5.53ZM223.5,60.15l-1.74-11.02-1.74,11.02h3.47Z"/>
  <path class="st1" d="M231.73,44.79h-1.26v3.45h-.84v-3.45h-1.26v-.68h3.35v.68Z"/>
  <path class="st1" d="M233.21,44.08l1.05,2.99,1.05-2.99h1.12v4.13h-.84v-1.12l.09-1.94-1.12,3.08h-.59l-1.12-3.08.09,1.94v1.12h-.84v-4.13h1.12Z"/>
</svg>